<mxfile host="app.diagrams.net" modified="2022-12-14T00:56:54.954Z" agent="5.0 (Windows NT 10.0; Win64; x64) AppleWebKit/537.36 (KHTML, like Gecko) Chrome/108.0.0.0 Safari/537.36" etag="ZZvdrLL_IqoYzuRjxKwk" version="20.6.2" type="github">
  <diagram id="kgpKYQtTHZ0yAKxKKP6v" name="Page-1">
    <mxGraphModel dx="1182" dy="754" grid="1" gridSize="10" guides="1" tooltips="1" connect="1" arrows="1" fold="1" page="1" pageScale="1" pageWidth="850" pageHeight="1100" math="0" shadow="0">
      <root>
        <mxCell id="0" />
        <mxCell id="1" parent="0" />
        <mxCell id="0HO_ofuyOMyAhvDu8aWt-1" value="Business Process: Online Payment&amp;nbsp;" style="swimlane;childLayout=stackLayout;resizeParent=1;resizeParentMax=0;horizontal=1;startSize=20;horizontalStack=0;html=1;" vertex="1" parent="1">
          <mxGeometry x="80" y="120" width="480" height="1210" as="geometry" />
        </mxCell>
        <mxCell id="0HO_ofuyOMyAhvDu8aWt-2" value="thunder web (customer)" style="swimlane;startSize=20;horizontal=0;html=1;" vertex="1" parent="0HO_ofuyOMyAhvDu8aWt-1">
          <mxGeometry y="20" width="480" height="350" as="geometry" />
        </mxCell>
        <mxCell id="0HO_ofuyOMyAhvDu8aWt-3" value="thun" style="swimlane;startSize=20;horizontal=0;html=1;" vertex="1" parent="0HO_ofuyOMyAhvDu8aWt-1">
          <mxGeometry y="370" width="480" height="360" as="geometry" />
        </mxCell>
        <mxCell id="0HO_ofuyOMyAhvDu8aWt-4" value="Lane 3" style="swimlane;startSize=20;horizontal=0;html=1;" vertex="1" parent="0HO_ofuyOMyAhvDu8aWt-1">
          <mxGeometry y="730" width="480" height="480" as="geometry" />
        </mxCell>
        <mxCell id="0HO_ofuyOMyAhvDu8aWt-7" value="Lane 3" style="swimlane;startSize=20;horizontal=0;html=1;" vertex="1" parent="1">
          <mxGeometry x="80" y="1330" width="480" height="480" as="geometry" />
        </mxCell>
        <mxCell id="0HO_ofuyOMyAhvDu8aWt-8" value="Lane 3" style="swimlane;startSize=20;horizontal=0;html=1;" vertex="1" parent="1">
          <mxGeometry x="80" y="1810" width="480" height="240" as="geometry" />
        </mxCell>
      </root>
    </mxGraphModel>
  </diagram>
</mxfile>
